HIERARCHY
ROOT rForeArm
{
	OFFSET 0.000000 0.000000 0.000000 
	CHANNELS 6 Xposition Yposition Zposition Yrotation Zrotation Xrotation
	JOINT rHand
	{
		OFFSET -55.411640 -5.832731 0.000000 
		CHANNELS 3 Zrotation Yrotation Xrotation
		JOINT rThumb1
		{
			OFFSET -20.414820 -17.498367 29.164030 
			CHANNELS 3 Zrotation Yrotation Xrotation
			JOINT rThumb2
			{
				OFFSET -29.164089 -14.582175 14.582018 
				CHANNELS 3 Zrotation Yrotation Xrotation
				JOINT rThumb3
				{
					OFFSET -27.985775 -14.981466 1.674890 
					CHANNELS 3 Zrotation Yrotation Xrotation
					End Site
					{
						OFFSET -33.028271 -15.468540 -0.035581 
					}
				}
			}
		}
		JOINT rIndex1
		{
			OFFSET -90.408546 17.498367 37.913242 
			CHANNELS 3 Zrotation Yrotation Xrotation
			JOINT rIndex2
			{
				OFFSET -44.195183 -8.028914 2.099810 
				CHANNELS 3 Zrotation Yrotation Xrotation
				JOINT rIndex3
				{
					OFFSET -28.423222 -11.519792 -2.499355 
					CHANNELS 3 Zrotation Yrotation Xrotation
					End Site
					{
						OFFSET -20.339029 -16.818861 0.000000 
					}
				}
			}
		}
		JOINT rMid1
		{
			OFFSET -96.241364 17.498367 8.749211 
			CHANNELS 3 Zrotation Yrotation Xrotation
			JOINT rMid2
			{
				OFFSET -46.662457 -11.665636 0.000000 
				CHANNELS 3 Zrotation Yrotation Xrotation
				JOINT rMid3
				{
					OFFSET -22.007113 -24.200254 0.548285 
					CHANNELS 3 Zrotation Yrotation Xrotation
					End Site
					{
						OFFSET -11.047405 -28.207411 2.510730 
					}
				}
			}
		}
		JOINT rRing1
		{
			OFFSET -96.241364 11.665636 -20.414820 
			CHANNELS 3 Zrotation Yrotation Xrotation
			JOINT rRing2
			{
				OFFSET -37.913185 -14.582001 2.916398 
				CHANNELS 3 Zrotation Yrotation Xrotation
				JOINT rRing3
				{
					OFFSET -16.603136 -24.118727 3.348037 
					CHANNELS 3 Zrotation Yrotation Xrotation
					End Site
					{
						OFFSET -7.381393 -24.392859 0.000000 
					}
				}
			}
		}
		JOINT rPinky1
		{
			OFFSET -84.575729 -2.916366 -43.746048 
			CHANNELS 3 Zrotation Yrotation Xrotation
			JOINT rPinky2
			{
				OFFSET -29.630653 -9.513432 1.178228 
				CHANNELS 3 Zrotation Yrotation Xrotation
				JOINT rPinky3
				{
					OFFSET -14.115352 -16.734205 1.738181 
					CHANNELS 3 Zrotation Yrotation Xrotation
					End Site
					{
						OFFSET -14.439112 -19.271620 1.326962 
					}
				}
			}
		}
	}
}
MOTION
Frames: 16
Frame Time: 0.033333
128.321823 -1477.330811 -75.826485 0.000000 0.000000 0.000000 -0.085584 -0.590221 -0.500574 -14.779170 -20.951805 -0.486069 -7.138635 6.500672 -8.705359 -4.174719 -27.252937 21.742142 0.064459 11.353225 0.021516 -18.574217 0.000901 0.030870 -20.400391 -0.013760 -0.001187 -4.013679 0.067460 -0.011055 -38.691406 -0.006796 -0.007013 -22.940151 -2.218804 -1.070239 -6.084218 -11.914703 1.883574 -48.310562 -0.046116 0.016046 -11.542968 -0.027431 -0.010290 -14.478444 -23.446472 5.388661 -35.595692 -0.033981 -0.035069 -11.006012 0.121686 -0.202441 
128.321991 -1477.331299 -75.826485 0.000000 0.000000 0.000000 -0.257293 -0.910517 -0.283721 -13.216982 -17.449961 -1.159508 -6.251576 7.024831 -8.279776 -2.887458 -22.980654 18.214821 0.106955 11.744654 0.044776 -18.662107 -0.008269 0.034226 -20.673830 -0.013760 -0.001185 -3.906283 0.154193 -0.025268 -39.306641 -0.006796 -0.007013 -23.279535 -2.247444 -1.088912 -5.229712 -12.059381 1.906000 -47.773464 -0.048921 0.037701 -11.259763 -0.036575 -0.013721 -15.971040 -24.943300 5.896568 -38.056679 0.085236 -0.150599 -12.871498 0.196779 -0.329720 
128.322174 -1477.331665 -75.826485 0.000000 0.000000 0.000000 -0.431798 -1.238621 -0.061131 -11.454146 -13.495621 -1.893204 -5.275760 7.679610 -7.847466 -1.769062 -18.107876 14.457938 0.130354 12.130513 0.067332 -18.769529 -0.008269 0.034226 -20.986332 -0.013760 -0.001185 -3.750071 0.221653 -0.036323 -39.814449 -0.006796 -0.007013 -23.531649 -2.268789 -1.102391 -4.640879 -12.260431 1.949098 -47.646503 -0.038172 0.056709 -11.249988 -0.042290 -0.026296 -16.566837 -26.002209 6.249164 -39.287411 0.197657 -0.273148 -13.916601 0.237341 -0.397200 
128.322433 -1477.332153 -75.826485 0.000000 0.000000 0.000000 -0.587081 -1.519247 0.131664 -9.588787 -9.291057 -2.640086 -4.272780 8.496880 -7.434384 -0.903470 -12.843590 10.618958 0.137519 12.467064 0.086738 -18.886719 -0.008269 0.034226 -21.289066 -0.021232 0.005102 -3.564573 0.289112 -0.047378 -40.205078 -0.006796 -0.007013 -23.706182 -2.283601 -1.111666 -4.296702 -12.472620 1.981978 -47.822254 -0.013868 0.073067 -11.425769 -0.042290 -0.026296 -16.465313 -26.642775 6.448330 -39.512497 0.309860 -0.381886 -14.258433 0.243371 -0.404882 
128.322693 -1477.332642 -75.826485 0.000000 0.000000 0.000000 -0.703181 -1.729300 0.283000 -7.676311 -5.015395 -3.365098 -3.311850 9.471273 -7.104146 -0.353197 -7.412111 6.825904 0.131315 12.710532 0.100546 -18.984375 -0.008269 0.034226 -21.523441 -0.021232 0.005102 -3.398601 0.338877 -0.045637 -40.429688 -0.006796 -0.007013 -23.774059 -2.289368 -1.115261 -4.205533 -12.655869 2.012491 -48.193329 0.007788 0.075875 -11.718740 -0.033146 -0.022865 -15.855863 -26.855875 6.481950 -38.936787 0.386999 -0.456643 -14.014168 0.219250 -0.374157 
128.322952 -1477.333374 -75.826485 0.000000 0.000000 0.000000 -0.758647 -1.828963 0.348114 -5.781816 -0.860359 -4.049525 -2.457042 10.626648 -6.898355 -0.111159 -2.041078 3.142898 0.114607 12.817155 0.106311 -19.052729 -0.008269 0.034226 -21.650393 -0.021232 0.005102 -3.271658 0.348514 -0.047217 -40.458984 -0.006796 -0.007013 -23.754669 -2.287720 -1.114235 -4.346805 -12.782743 2.024423 -48.662060 0.029443 0.078685 -12.050777 -0.036575 -0.013721 -14.922722 -26.645187 6.388978 -37.784729 0.429075 -0.497419 -13.301135 0.184718 -0.314358 
128.323212 -1477.333862 -75.826485 0.000000 0.000000 0.000000 -0.729281 -1.778152 0.307056 -3.973161 2.998823 -4.643248 -1.773123 11.968781 -6.856144 -0.146160 3.039009 -0.329321 0.090256 12.743174 0.101586 -19.062494 -0.008269 0.034226 -21.621096 -0.021232 0.005102 -3.242343 0.329240 -0.044058 -40.273434 -0.006796 -0.007013 -23.618914 -2.276191 -1.107034 -4.728360 -12.802031 2.027413 -49.121037 0.042998 0.076039 -12.333982 -0.027431 -0.010290 -13.862231 -26.005039 6.140018 -36.270908 0.408037 -0.477031 -12.246271 0.132096 -0.231515 
128.323380 -1477.334106 -75.826485 0.000000 0.000000 0.000000 -0.589211 -1.527760 0.135951 -2.318982 6.382978 -5.141003 -1.328106 13.517207 -7.030600 -0.396442 7.592261 -3.494595 0.061129 12.444825 0.083923 -18.994141 0.000901 0.030868 -21.406254 -0.021232 0.005102 -3.330183 0.269838 -0.044220 -39.814449 -0.006796 -0.007013 -23.376499 -2.255646 -1.094106 -5.339487 -12.687793 1.997672 -49.453087 0.040350 0.062484 -12.499999 -0.018288 -0.006860 -12.874950 -24.938612 5.775867 -34.610157 0.309860 -0.381886 -10.966858 0.079473 -0.148672 
128.323380 -1477.334106 -75.826485 0.000000 0.000000 0.000000 -0.339208 -1.053340 -0.183464 -0.888846 9.116033 -5.487580 -1.192356 15.286013 -7.469706 -0.781406 11.403616 -6.226268 0.030089 11.878366 0.050878 -18.828123 0.000901 0.030870 -20.937500 -0.013760 -0.001187 -3.574257 0.163830 -0.026848 -39.082031 -0.006796 -0.007013 -23.017723 -2.225340 -1.074435 -6.168432 -12.379162 1.947735 -49.570297 0.021499 0.038020 -12.470704 -0.009144 -0.003429 -12.153219 -23.435818 5.296636 -33.007935 0.134542 -0.211982 -9.570316 0.026850 -0.065830 
128.323212 -1477.333862 -75.826485 0.000000 0.000000 0.000000 0.061743 -0.309863 -0.696802 0.245433 11.025265 -5.646038 -1.448301 17.284948 -8.222502 -1.169442 14.271357 -8.354998 0.000000 11.000000 0.000000 -18.544920 0.006714 0.018342 -20.195313 0.000000 0.000000 -4.013672 0.000000 0.000000 -38.017574 0.000000 0.000000 -22.533428 -2.188212 -1.039014 -7.205384 -11.858326 1.862943 -49.365231 -0.024304 -0.016363 -12.167970 0.000000 0.000000 -11.913972 -21.512995 4.722674 -31.689611 -0.146185 0.073675 -8.193359 0.000000 0.000000 
128.322952 -1477.333740 -75.826485 0.000000 0.000000 0.000000 0.611772 0.736770 -1.379389 1.038028 12.013228 -5.603666 -2.159662 19.509239 -9.333053 -1.466448 16.039675 -9.767607 -0.026831 9.783689 -0.069128 -18.134766 0.006714 0.018342 -19.130859 0.000000 0.000000 -4.677812 -0.232869 0.028266 -36.611328 -0.007013 0.006796 -21.922529 -2.137177 -1.005291 -8.450484 -11.097814 1.731338 -48.749947 -0.097215 -0.065453 -11.533204 -0.003429 0.009144 -12.306418 -19.180944 4.059602 -30.832516 -0.538893 0.454256 -6.914067 -0.022471 0.044437 
128.322693 -1477.333374 -75.826485 0.000000 0.000000 0.000000 1.283306 2.044810 -2.213356 1.527851 12.148960 -5.376753 -3.277081 21.910742 -10.766824 -1.615225 16.822235 -10.484026 -0.050327 8.274263 -0.148811 -17.636721 0.015885 0.014984 -17.832031 0.007472 -0.006286 -5.527722 -0.513924 0.064427 -34.921871 -0.007013 0.006796 -21.214647 -2.078495 -0.965175 -9.857242 -10.123528 1.574957 -47.792717 -0.188977 -0.139008 -10.615236 -0.003429 0.009144 -13.279203 -16.511372 3.340778 -30.399454 -1.022731 0.923151 -5.771489 -0.026850 0.065830 
128.322510 -1477.333252 -75.826485 0.000000 0.000000 0.000000 2.048342 3.560590 -3.137922 1.734349 11.584003 -4.987636 -4.759969 24.443806 -12.466404 -1.606952 16.780676 -10.614475 -0.070967 6.534136 -0.229334 -17.119143 0.015885 0.014984 -16.386721 0.014945 -0.012575 -6.524429 -0.833526 0.106902 -33.017578 -0.007013 0.006796 -20.429722 -2.017595 -0.910819 -11.380095 -8.994812 1.395185 -46.542427 -0.286192 -0.204462 -9.462891 0.005715 0.012573 -14.749013 -13.584268 2.575221 -30.353415 -1.590624 1.474040 -4.736323 -0.019169 0.071858 
128.322342 -1477.332886 -75.826485 0.000000 0.000000 0.000000 2.867983 5.224626 -4.109386 1.713776 10.445904 -4.474757 -6.555255 27.021513 -14.388081 -1.490161 16.073729 -10.259339 -0.089231 4.625843 -0.300976 -16.630859 0.015885 0.014984 -14.892580 0.022417 -0.018862 -7.628917 -1.172402 0.152531 -30.957029 -0.007013 0.006796 -19.615141 -1.951336 -0.863258 -12.962893 -7.758382 1.209218 -45.086987 -0.375306 -0.264460 -8.144532 0.005715 0.012573 -16.600677 -10.512209 1.792257 -30.607389 -2.200634 2.079751 -3.808578 0.000573 0.062530 
128.322174 -1477.332397 -75.826485 0.000000 0.000000 0.000000 3.713849 6.985786 -5.085261 1.519078 8.873281 -3.874369 -8.605475 29.604120 -16.479403 -1.289706 14.870141 -9.545550 -0.105598 2.611933 -0.354014 -16.230469 0.025055 0.011626 -13.437509 0.029889 -0.025150 -8.792410 -1.530550 0.201311 -28.798826 -0.007013 0.006796 -18.790833 -1.884984 -0.813843 -14.558789 -6.465465 1.005325 -43.514355 -0.448216 -0.313549 -6.718749 0.005715 0.012575 -18.732244 -7.377865 0.982004 -31.103718 -2.845217 2.706287 -2.988249 0.027996 0.059231 
128.322083 -1477.331787 -75.826485 0.000000 0.000000 0.000000 4.552324 8.789010 -6.035899 1.186526 6.993081 -3.202030 -10.828987 32.117779 -18.661369 -1.064670 13.300400 -8.583518 -0.120550 0.554793 -0.378733 -15.976565 0.025055 0.011626 -12.128913 0.029889 -0.025150 -9.975744 -1.877481 0.258140 -26.621094 -0.007013 0.006796 -17.976753 -1.823746 -0.755343 -16.120291 -5.172469 0.803115 -41.883381 -0.486074 -0.327266 -5.253907 -0.003429 0.009144 -21.028429 -4.263641 0.174306 -31.793913 -3.510462 3.353519 -2.265604 0.053769 0.042223 
